<?xml version="1.0" encoding="utf-8"?>
<!-- Generator: Adobe Illustrator 19.0.0, SVG Export Plug-In . SVG Version: 6.00 Build 0)  -->
<svg version="1.1" xmlns="http://www.w3.org/2000/svg" xmlns:xlink="http://www.w3.org/1999/xlink" x="0px" y="0px"
	 viewBox="0 0 960 235" style="enable-background:new 0 0 960 235;" xml:space="preserve">
<style type="text/css">
	.st0{display:none;}
	.st1{fill:#007BFF;}
	.st2{fill:#FFFFFF;}
	.st3{fill:#282828;}
</style>
<g id="Camada_1" class="st0">
	
		<image style="display:inline;overflow:visible;" width="1280" height="286" id="XMLID_2_" xlink:href="C:\Users\Luciano\Desktop\1280px-YouTube_Logo_2017.svg.png"  transform="matrix(0.7273 0 0 0.7273 14.5455 13.5)">
	</image>
</g>
<g id="Camada_2">
	<path id="XMLID_28_" class="st1" d="M265.3,217.7H66.7c-26,0-47-21-47-47V66c0-26,21-47,47-47h198.7c26,0,47,21,47,47v104.7
		C312.3,196.6,291.3,217.7,265.3,217.7z"/>
	<polygon id="XMLID_30_" class="st2" points="135,163 135,74 211.8,118.5 	"/>
	<polygon id="XMLID_31_" class="st3" points="342,30 370,30 389,118.8 408.7,30 437,30 403,147.3 403,206 374,206 374,148 	"/>
	<path id="XMLID_32_" class="st3" d="M469.5,74.7c44.5,2.3,37.6,32.2,40.3,64.3c0.7,34.7-2.5,68.7-38.7,68.3
		c-40.5,1.7-43-33.7-41.7-68.3C430.6,105.1,432.2,74.5,469.5,74.7z"/>
	<path id="XMLID_1_" class="st2" d="M469.9,93c12.5,1.7,10.5,23.1,11.3,46.1c0.2,24.9-0.7,49.2-10.8,49c-11.3,1.2-12-24.1-11.7-49
		C459,114.8,459.4,92.9,469.9,93z"/>
	<path id="XMLID_3_" class="st3" d="M526.1,182.2c0.1,2.9,0.6,18.9,15.5,24.5c14.4,3.1,20.9-1.1,22.7-2.1
		c12.7-8.8,13.3-15.5,14.6-15.2c1.3,0.3,1.5,15.5,1.9,16.2c1.4,0.2,22.3,0,22.3,0V78h-28v101.4c0,0-4.6,8.8-12.8,8.1
		s-7.7-9.5-7.7-9.5L554,77h-28L526.1,182.2z"/>
	<polygon id="XMLID_4_" class="st3" points="596,30 682,30 682,53 653.6,53 653.5,207 625,207 625,53 596,53 	"/>
	<path id="XMLID_5_" class="st3" d="M676.1,182.2c0.1,2.9,0.6,18.9,15.5,24.5c14.4,3.1,20.9-1.1,22.7-2.1
		c12.7-8.8,13.3-15.5,14.6-15.2c1.3,0.3,1.5,15.5,1.9,16.2c1.4,0.2,22.3,0,22.3,0V78h-28v101.4c0,0-4.6,8.8-12.8,8.1
		s-7.7-9.5-7.7-9.5L704,77h-28L676.1,182.2z"/>
	<path id="XMLID_11_" class="st3" d="M817,206.5c-10.2-0.8-19.3-13.5-19.3-13.5l-3.5,12l-24.3,0.3V24h28l0.7,67.4
		c0,0,7.2-13,18.5-16.1c11.3-3.2,23.3-0.2,28.8,12.8c5.9,10.4,6.7,74.1,4,87.2C845.3,213.6,817,206.5,817,206.5"/>
	<path id="XMLID_9_" class="st2" d="M798,181v-75c0,0,4.7-11.3,12.7-11.3c12.3-2,12.1,20.6,12.4,45.8c0,33.4-2,46.4-14.4,46.4
		C804.2,187,798,181,798,181z"/>
	<path id="XMLID_14_" class="st3" d="M915.5,166.3c0,0,23.9,1,25.6,1.8c1.2,1.3-0.5,21.4-7,28.3c-9.8,11.5-18.4,10.9-28.3,11.5
		c-18.3,0.9-32.5-9.6-36-20.7c-6.5-25.9-4.8-46.6-4.1-62.5c-0.8-35.5,12.9-49.1,37.9-50.3c21.7-0.6,34.1,10.7,36.1,31.1
		c2.3,12.5,2.2,27.3,2.5,44.9c-2.4,0-49.7,0.3-49.7,0.3l1.2,24.5c0,0,0.9,12.7,10.3,13C918.7,189.8,915.5,166.3,915.5,166.3z"/>
	<path id="XMLID_13_" class="st2" d="M893,134h22c0,0,3.5-41-11-40.2C889,92.7,893,134,893,134z"/>
</g>
</svg>
